<svg id="ADA_Favicon" data-name="ADA Favicon" xmlns="http://www.w3.org/2000/svg" width="32" height="32" viewBox="0 0 32 32">
  <g id="Group_6" data-name="Group 6" transform="translate(-28 -74)">
    <rect id="Rectangle_6" data-name="Rectangle 6" width="32" height="32" rx="4" transform="translate(28 74)" fill="#cb0019"/>
  </g>
  <g id="ADA_Icon_logo_White_" data-name="ADA Icon logo (White)" transform="translate(3 8.5)">
    <rect id="Rectangle_130" data-name="Rectangle 130" width="26.25" height="15" fill="none"/>
    <g id="Group_2215" data-name="Group 2215" transform="translate(0.625 0.621)">
      <path id="Path_464" data-name="Path 464" d="M11.584-48.5a1.064,1.064,0,0,1,.787.312,1.094,1.094,0,0,1,.311.807v7.759a1.1,1.1,0,0,1-.311.8,1.049,1.049,0,0,1-.787.321,1.049,1.049,0,0,1-.787-.321,1.1,1.1,0,0,1-.311-.8v-.9l.4.165a1.034,1.034,0,0,1-.256.578,3.49,3.49,0,0,1-.7.669,4.258,4.258,0,0,1-1.033.559,3.553,3.553,0,0,1-1.29.229,4.174,4.174,0,0,1-2.286-.651,4.576,4.576,0,0,1-1.619-1.8,5.636,5.636,0,0,1-.594-2.632,5.677,5.677,0,0,1,.594-2.65,4.627,4.627,0,0,1,1.6-1.8A4.021,4.021,0,0,1,7.542-48.5a4.216,4.216,0,0,1,1.445.238,4.314,4.314,0,0,1,1.143.605,3.464,3.464,0,0,1,.75.743,1.183,1.183,0,0,1,.265.633l-.659.238v-1.339a1.1,1.1,0,0,1,.311-.8A1.049,1.049,0,0,1,11.584-48.5ZM7.889-40.343a2.475,2.475,0,0,0,1.408-.4,2.723,2.723,0,0,0,.942-1.1,3.523,3.523,0,0,0,.338-1.559,3.566,3.566,0,0,0-.338-1.577,2.723,2.723,0,0,0-.942-1.1,2.475,2.475,0,0,0-1.408-.4,2.443,2.443,0,0,0-1.39.4,2.723,2.723,0,0,0-.942,1.1,3.566,3.566,0,0,0-.338,1.577,3.523,3.523,0,0,0,.338,1.559,2.723,2.723,0,0,0,.942,1.1A2.443,2.443,0,0,0,7.889-40.343Z" transform="translate(12.094 52.082)" fill="#fff"/>
      <path id="Path_465" data-name="Path 465" d="M11.584-65.86a1.065,1.065,0,0,1,.787.312,1.094,1.094,0,0,1,.311.807v11.335a1.1,1.1,0,0,1-.311.8,1.049,1.049,0,0,1-.787.321,1.049,1.049,0,0,1-.787-.321,1.1,1.1,0,0,1-.311-.8v-.9l.4.165a1.034,1.034,0,0,1-.256.578,3.49,3.49,0,0,1-.7.669,4.258,4.258,0,0,1-1.033.559,3.554,3.554,0,0,1-1.29.229,4.174,4.174,0,0,1-2.286-.651,4.576,4.576,0,0,1-1.619-1.8,5.636,5.636,0,0,1-.594-2.632,5.677,5.677,0,0,1,.594-2.65,4.627,4.627,0,0,1,1.6-1.8,4.021,4.021,0,0,1,2.232-.651,4.216,4.216,0,0,1,1.445.238,4.315,4.315,0,0,1,1.143.605,3.464,3.464,0,0,1,.75.743,1.183,1.183,0,0,1,.265.633l-.659.238v-4.916a1.1,1.1,0,0,1,.311-.8A1.049,1.049,0,0,1,11.584-65.86ZM7.889-54.121a2.475,2.475,0,0,0,1.408-.4,2.723,2.723,0,0,0,.942-1.1,3.523,3.523,0,0,0,.338-1.559,3.566,3.566,0,0,0-.338-1.577,2.723,2.723,0,0,0-.942-1.1,2.475,2.475,0,0,0-1.408-.4,2.443,2.443,0,0,0-1.39.4,2.723,2.723,0,0,0-.942,1.1,3.566,3.566,0,0,0-.338,1.577,3.523,3.523,0,0,0,.338,1.559,2.723,2.723,0,0,0,.942,1.1A2.443,2.443,0,0,0,7.889-54.121Z" transform="translate(4.49 65.86)" fill="#fff"/>
      <path id="Path_466" data-name="Path 466" d="M4-47.568a.424.424,0,0,1-.313-.126.427.427,0,0,1-.125-.314.4.4,0,0,1,.125-.307A.439.439,0,0,1,4-48.433H7.186a.431.431,0,0,1,.313.122A.414.414,0,0,1,7.625-48a.414.414,0,0,1-.125.311.431.431,0,0,1-.313.122Zm1.582,1.533a.5.5,0,0,1-.364-.141.484.484,0,0,1-.145-.362V-49.6a.477.477,0,0,1,.149-.362.514.514,0,0,1,.368-.141.484.484,0,0,1,.364.141.5.5,0,0,1,.137.362v3.066a.491.491,0,0,1-.141.362A.5.5,0,0,1,5.581-46.035Z" transform="translate(14.431 56.798)" fill="#fff"/>
      <path id="Path_463" data-name="Path 463" d="M11.584-48.5a1.064,1.064,0,0,1,.787.312,1.094,1.094,0,0,1,.311.807v7.759a1.1,1.1,0,0,1-.311.8,1.049,1.049,0,0,1-.787.321,1.049,1.049,0,0,1-.787-.321,1.1,1.1,0,0,1-.311-.8v-.9l.4.165a1.034,1.034,0,0,1-.256.578,3.49,3.49,0,0,1-.7.669,4.258,4.258,0,0,1-1.033.559,3.553,3.553,0,0,1-1.29.229,4.174,4.174,0,0,1-2.286-.651,4.576,4.576,0,0,1-1.619-1.8,5.636,5.636,0,0,1-.594-2.632,5.677,5.677,0,0,1,.594-2.65,4.627,4.627,0,0,1,1.6-1.8A4.021,4.021,0,0,1,7.542-48.5a4.216,4.216,0,0,1,1.445.238,4.314,4.314,0,0,1,1.143.605,3.464,3.464,0,0,1,.75.743,1.183,1.183,0,0,1,.265.633l-.659.238v-1.339a1.1,1.1,0,0,1,.311-.8A1.049,1.049,0,0,1,11.584-48.5ZM7.889-40.343a2.475,2.475,0,0,0,1.408-.4,2.723,2.723,0,0,0,.942-1.1,3.523,3.523,0,0,0,.338-1.559,3.566,3.566,0,0,0-.338-1.577,2.723,2.723,0,0,0-.942-1.1,2.475,2.475,0,0,0-1.408-.4,2.443,2.443,0,0,0-1.39.4,2.723,2.723,0,0,0-.942,1.1,3.566,3.566,0,0,0-.338,1.577,3.523,3.523,0,0,0,.338,1.559,2.723,2.723,0,0,0,.942,1.1A2.443,2.443,0,0,0,7.889-40.343Z" transform="translate(-3.115 52.082)" fill="#fff"/>
    </g>
  </g>
</svg>
