<svg id="Symphony_Favicon" data-name="Symphony Favicon" xmlns="http://www.w3.org/2000/svg" width="32" height="32" viewBox="0 0 32 32">
  <g id="Group_6" data-name="Group 6" transform="translate(-28 -74)">
    <rect id="Rectangle_6" data-name="Rectangle 6" width="32" height="32" rx="4" transform="translate(28 74)" fill="#475ad4"/>
  </g>
  <g id="Symphony_Logo" data-name="Symphony Logo" transform="translate(4 4)">
    <rect id="Rectangle_133" data-name="Rectangle 133" width="24" height="24" fill="none"/>
    <path id="Combined-Shape-Copy" d="M6.057,20.85a1.248,1.248,0,0,1-1.03-.489,2.214,2.214,0,0,1-.378-1.355V17.02h7.774L7.581,20.292a2.86,2.86,0,0,1-1.5.558Zm16.989-3.83H12.423l3.433-2.32h7.19a.95.95,0,0,1,.954.944v.432A.95.95,0,0,1,23.046,17.02ZM4.68,16.95H.952A.951.951,0,0,1,0,16v-.433a.951.951,0,0,1,.952-.948H4.68V16.95Zm11.189-2.329H4.68V11.589H.952A.951.951,0,0,1,0,10.641v-.433A.951.951,0,0,1,.952,9.26H4.68v2.329h10.1a.949.949,0,0,0,.668-.272.94.94,0,0,0,.285-.658v-.451a.951.951,0,0,0-.952-.948H4.68V1.853A2.247,2.247,0,0,1,5.051.5,1.242,1.242,0,0,1,6.062,0h.026A2.857,2.857,0,0,1,7.617.559L12.61,3.953H9.225a.949.949,0,0,0-.668.272.94.94,0,0,0-.285.658v.451a.951.951,0,0,0,.952.948h6.811L12.61,3.953H23.048A.951.951,0,0,1,24,4.9v.433a.951.951,0,0,1-.952.948H16.035l3.214,2.185a2.371,2.371,0,0,1,1.159,1.9V10.4a2.368,2.368,0,0,1-1.163,1.931l-3.376,2.294Z" transform="translate(0 1.574)" fill="#fff"/>
  </g>
</svg>
