<svg xmlns="http://www.w3.org/2000/svg" width="150" height="43.441" viewBox="0 0 229.03 43.441"><defs><style>.a{fill:#000d62;}</style></defs><path class="a" d="M26.3,37.4a14.228,14.228,0,0,0,1.824-2.218A13.959,13.959,0,0,0,30.2,30.093a14.18,14.18,0,0,0-2.134-10.524,14.419,14.419,0,0,0-1.84-2.233,14.659,14.659,0,0,0-2.25-1.827,14.411,14.411,0,0,0-13.25-1.351,14.16,14.16,0,0,0-4.716,3.1L0,11.3,43.768,0,32.387,43.441ZM10.577,32.865a7.817,7.817,0,0,1-.045-11.116,7.959,7.959,0,0,1,11.2.045,7.816,7.816,0,0,1-5.514,13.4A7.99,7.99,0,0,1,10.577,32.865Zm163.6,1.094a7.753,7.753,0,0,1-4.405-4.419,9.03,9.03,0,0,1-.627-3.413V12.663h4.314v12.9a5.405,5.405,0,0,0,.344,1.971,4.469,4.469,0,0,0,.922,1.489,4.073,4.073,0,0,0,1.328.93,3.9,3.9,0,0,0,3.126,0,4.073,4.073,0,0,0,1.328-.93,4.469,4.469,0,0,0,.922-1.489,5.405,5.405,0,0,0,.344-1.971v-12.9h4.343V26.127a9.058,9.058,0,0,1-.625,3.413,7.839,7.839,0,0,1-1.75,2.667,8.074,8.074,0,0,1-2.689,1.752,9.6,9.6,0,0,1-6.876,0ZM93.7,34.6,83.851,12.663H88.6l5.969,13.278q1.468-3.319,2.953-6.654t2.984-6.624h4.752L95.508,34.6ZM67.911,33.82A11.331,11.331,0,0,1,64.332,31.6,10.925,10.925,0,0,1,61.8,28.113a11.115,11.115,0,0,1-.108-8.75,11.347,11.347,0,0,1,2.328-3.551,11.22,11.22,0,0,1,3.533-2.452A10.786,10.786,0,0,1,72,12.446a10.941,10.941,0,0,1,4.173.822,11.21,11.21,0,0,1,6.047,5.817,10.608,10.608,0,0,1,.937,4.467,10.726,10.726,0,0,1-.828,4.141,11.128,11.128,0,0,1-5.844,5.987A10.861,10.861,0,0,1,72,34.6,11.234,11.234,0,0,1,67.911,33.82Zm1.453-16.534a6.929,6.929,0,0,0-2.173,1.457,6.8,6.8,0,0,0-1.468,2.172,6.63,6.63,0,0,0-.531,2.637,6.363,6.363,0,0,0,.546,2.621,7.029,7.029,0,0,0,1.47,2.141,6.872,6.872,0,0,0,2.156,1.443,6.879,6.879,0,0,0,5.283,0A6.878,6.878,0,0,0,76.8,28.313a6.784,6.784,0,0,0,1.454-2.141,6.683,6.683,0,0,0-.015-5.258,7.147,7.147,0,0,0-1.47-2.172,6.72,6.72,0,0,0-2.156-1.457A6.553,6.553,0,0,0,72,16.757,6.631,6.631,0,0,0,69.364,17.286Zm145.6,17.092V12.663H229.03v4.312h-9.722v4.375h7.1v4.343h-7.1v4.375h9.722v4.312Zm-9.626,0L199.4,26.1h-2.625v8.283H192.46V12.663h8.845a6.456,6.456,0,0,1,2.593.527,6.855,6.855,0,0,1,2.141,1.444,7.061,7.061,0,0,1,1.47,2.123,6.264,6.264,0,0,1,.546,2.606,6.578,6.578,0,0,1-1.062,3.677,6.42,6.42,0,0,1-2.781,2.4l6.438,8.935Zm-8.562-12.563h3.719a3.48,3.48,0,0,0,2.437-.729,2.277,2.277,0,0,0,.781-1.722,2.187,2.187,0,0,0-.781-1.69,3.589,3.589,0,0,0-2.437-.7h-3.719ZM154.2,34.378v-17.4h-6.062V12.663h16.407v4.312h-6v17.4Zm-12.783,0L135.484,26.1h-2.625v8.283h-4.313V12.663h8.845a6.456,6.456,0,0,1,2.593.527,6.855,6.855,0,0,1,2.141,1.444,7.088,7.088,0,0,1,1.47,2.123,6.264,6.264,0,0,1,.546,2.606,6.578,6.578,0,0,1-1.062,3.677,6.418,6.418,0,0,1-2.782,2.4l6.439,8.935Zm-8.563-12.563h3.72a3.481,3.481,0,0,0,2.437-.729,2.277,2.277,0,0,0,.781-1.722,2.187,2.187,0,0,0-.781-1.69,3.59,3.59,0,0,0-2.437-.7h-3.72ZM109.167,34.378V12.663h14.065v4.312H113.51v4.375h7.1v4.343h-7.1v4.375h9.722v4.312Z"/></svg>