<svg xmlns="http://www.w3.org/2000/svg" xmlns:xlink="http://www.w3.org/1999/xlink" width="24" height="24" viewBox="0 0 24 24"><defs><style>.a{fill:none;}.b{clip-path:url(#a);}</style><clipPath id="a"><rect class="a" width="24" height="24" transform="translate(26 25)"/></clipPath></defs><g class="b" transform="translate(-26 -25)"><g transform="translate(26 25)"><path d="M5.875,10.25H5V12h.875a.875.875,0,1,0,0-1.75Z"/><path d="M22,5.5H2a2,2,0,0,0-2,2v9a2,2,0,0,0,2,2H22a2,2,0,0,0,2-2v-9A2,2,0,0,0,22,5.5ZM5.875,13.75H5V15.5H3.25v-7H5.875a2.625,2.625,0,1,1,0,5.25Zm8.75.875a.876.876,0,0,1-.621.839.967.967,0,0,1-.254.036.875.875,0,0,1-.728-.39l-1.9-2.845V15.5H9.375V9.375a.875.875,0,0,1,1.6-.485l1.9,2.847V8.5h1.75ZM20.75,10.25h-3.5v3.5H19v-.875h-.875v-1.75H20.75V13.75A1.752,1.752,0,0,1,19,15.5H17.25a1.752,1.752,0,0,1-1.75-1.75v-3.5A1.752,1.752,0,0,1,17.25,8.5h3.5Z"/></g></g></svg>