<svg xmlns="http://www.w3.org/2000/svg" xmlns:xlink="http://www.w3.org/1999/xlink" width="24" height="24" viewBox="0 0 24 24"><defs><style>.a{fill:none;}.b{clip-path:url(#a);}</style><clipPath id="a"><rect class="a" width="24" height="24" transform="translate(26 25)"/></clipPath></defs><g class="b" transform="translate(-26 -25)"><g transform="translate(26 25)"><path d="M5.625,10.25H4.75V12h.875a.875.875,0,1,0,0-1.75Z"/><path d="M22,5.5H2a2,2,0,0,0-2,2v9a2,2,0,0,0,2,2H22a2,2,0,0,0,2-2v-9A2,2,0,0,0,22,5.5ZM5.625,13.75H4.75V15.5H3v-7H5.625a2.625,2.625,0,0,1,0,5.25Zm6,0H10.75V15.5H9v-7h2.625a2.625,2.625,0,0,1,0,5.25Zm8.875-3.5H18.75V15.5H17V10.25H15.25V8.5H20.5v1.75Z"/><path d="M11.625,10.25H10.75V12h.875a.875.875,0,1,0,0-1.75Z"/></g></g></svg>