<svg xmlns="http://www.w3.org/2000/svg" xmlns:xlink="http://www.w3.org/1999/xlink" width="24" height="24" viewBox="0 0 24 24"><defs><style>.a{fill:none;}.b{clip-path:url(#a);}</style><clipPath id="a"><rect class="a" width="24" height="24" transform="translate(26 25)"/></clipPath></defs><g class="b" transform="translate(-26 -25)"><g transform="translate(26 25)"><path d="M18.375,10.25H17.5V12h.875a.875.875,0,1,0,0-1.75Z"/><path d="M22,5.5H2a2,2,0,0,0-2,2v9a2,2,0,0,0,2,2H22a2,2,0,0,0,2-2v-9A2,2,0,0,0,22,5.5ZM8.25,15.5H3.875a.874.874,0,0,1-.728-1.36L5.74,10.25H3V8.5H7.375A.876.876,0,0,1,8.1,9.861L5.51,13.75H8.25Zm5.25-5.25h-.875v3.5H13.5V15.5H10V13.75h.875v-3.5H10V8.5h3.5Zm4.875,3.5H17.5V15.5H15.75v-7h2.625a2.625,2.625,0,0,1,0,5.25Z"/></g></g></svg>