<svg xmlns="http://www.w3.org/2000/svg" xmlns:xlink="http://www.w3.org/1999/xlink" width="16" height="16" viewBox="0 0 16 16">
    <defs>
        <filter id="prefix__a" width="101.8%" height="128.1%" x="-.9%" y="-14%" filterUnits="objectBoundingBox">
            <feOffset in="SourceAlpha" result="shadowOffsetOuter1"/>
            <feGaussianBlur in="shadowOffsetOuter1" result="shadowBlurOuter1" stdDeviation="2"/>
            <feColorMatrix in="shadowBlurOuter1" result="shadowMatrixOuter1" values="0 0 0 0 0 0 0 0 0 0 0 0 0 0 0 0 0 0 0.2 0"/>
            <feMerge>
                <feMergeNode in="shadowMatrixOuter1"/>
                <feMergeNode in="SourceGraphic"/>
            </feMerge>
        </filter>
        <path id="prefix__b" d="M12 1.333H4c-.733 0-1.333.6-1.333 1.334v10.666c0 .734.6 1.334 1.333 1.334h8c.733 0 1.333-.6 1.333-1.334V2.667c0-.734-.6-1.334-1.333-1.334zM6 2.667h1.333V6l-.666-.5L6 6V2.667zm6 10.666H4V2.667h.667v6l2-1.5 2 1.5v-6H12v10.666z"/>
    </defs>
    <g fill="none" fill-rule="evenodd" filter="url(#prefix__a)" transform="translate(-784 -21)">
        <g transform="translate(784 21)">
            <mask id="prefix__c" fill="#fff">
                <use xlink:href="#prefix__b"/>
            </mask>
            <g fill="#475AD4" mask="url(#prefix__c)">
                <path d="M0 0H16V16H0z"/>
            </g>
        </g>
    </g>
</svg>
