<svg xmlns="http://www.w3.org/2000/svg" xmlns:xlink="http://www.w3.org/1999/xlink" width="121" height="120" viewBox="0 0 121 120">
    <defs>
        <filter id="prefix__c" width="128%" height="121%" x="-14%" y="-10.5%" filterUnits="objectBoundingBox">
            <feOffset dy="2" in="SourceAlpha" result="shadowOffsetOuter1"/>
            <feGaussianBlur in="shadowOffsetOuter1" result="shadowBlurOuter1" stdDeviation="1.5"/>
            <feColorMatrix in="shadowBlurOuter1" result="shadowMatrixOuter1" values="0 0 0 0 0 0 0 0 0 0 0 0 0 0 0 0 0 0 0.12 0"/>
            <feMerge>
                <feMergeNode in="shadowMatrixOuter1"/>
                <feMergeNode in="SourceGraphic"/>
            </feMerge>
        </filter>
        <path id="prefix__a" d="M0 0H120V120H0z"/>
    </defs>
    <g fill="none" fill-rule="evenodd" transform="translate(.22)">
        <mask id="prefix__b" fill="#fff">
            <use xlink:href="#prefix__a"/>
        </mask>
        <g fill-rule="nonzero" mask="url(#prefix__b)">
            <rect width="120" height="84.828" fill="#EEF1FF" rx="13"/>
            <path fill="#DEE3FF" d="M20.69 107.586h78.62c4.571 0 8.276 3.705 8.276 8.276V120H12.414v-4.138c0-4.57 3.705-8.276 8.276-8.276z"/>
            <path fill="#EEF1FF" d="M80.69 84.828H39.31c0 9.047-4.522 17.496-12.05 22.516l-.363.242h66.206l-.364-.242c-7.527-5.02-12.049-13.469-12.05-22.516z"/>
            <path fill="#BAC3F6" d="M107.587 115.862V120H12.414v-4.138c0-4.57 3.705-8.276 8.276-8.276h.269c.937 3.655 4.233 6.21 8.007 6.207h78.351c.185.674.276 1.37.27 2.07zM80.69 84.828H39.31c0 9.047-4.522 17.496-12.05 22.516l-.363.242L80.69 84.828z"/>
            <path fill="#DEE3FF" d="M120 62.069v10.345c0 6.856-5.558 12.414-12.414 12.414H12.414C5.558 84.828 0 79.27 0 72.414v-60C0 5.558 5.558 0 12.414 0h14.483v16.552c0 25.138 20.378 45.517 45.517 45.517H120z"/>
            <g filter="url(#prefix__c)" transform="translate(14.345 10.345)">
                <path fill="#475AD4" d="M4.138 0L74.483 0 74.483 8.276 4.138 8.276z"/>
                <path fill="#FFF" d="M12.414 0L66.207 0 66.207 45.517 12.414 45.517z"/>
                <path fill="#EEE" d="M66.207 26.897v18.62H12.414V0h8.276v6.207c0 11.426 9.263 20.69 20.69 20.69h24.827z"/>
                <path fill="#FFF" d="M0 33.103L53.793 33.103 53.793 99.31 0 99.31z"/>
                <path fill="#CECECE" d="M53.793 45.517L66.207 45.517 53.793 33.103z"/>
                <path fill="#EEE" d="M53.793 84.828V99.31H0V33.103h12.414v31.035c0 11.427 9.263 20.69 20.69 20.69h20.69z"/>
                <g>
                    <path fill="#72727E" d="M22.759 4.138h20.69c1.142 0 2.068-.926 2.068-2.069C45.517.926 44.591 0 43.448 0h-20.69c-1.142 0-2.068.926-2.068 2.069 0 1.143.926 2.069 2.069 2.069zM51.724 8.276H14.483c-1.143 0-2.07.926-2.07 2.069 0 1.142.927 2.069 2.07 2.069h37.241c1.143 0 2.07-.927 2.07-2.07 0-1.142-.927-2.068-2.07-2.068zM39.31 16.552H14.483c-1.143 0-2.07.926-2.07 2.069 0 1.142.927 2.069 2.07 2.069H39.31c1.143 0 2.07-.927 2.07-2.07 0-1.142-.927-2.068-2.07-2.068z" transform="translate(6.207 6.207)"/>
                    <path fill="#FCBC04" d="M31.034 62.069c1.714 0 3.104 1.39 3.104 3.103 0 1.143.926 2.07 2.069 2.07 1.143 0 2.069-.927 2.069-2.07-.012-3.19-2.114-5.996-5.173-6.904v-2.406c0-1.143-.926-2.069-2.069-2.069-1.142 0-2.068.926-2.068 2.07v2.405c-3.446 1.018-5.62 4.415-5.1 7.97.52 3.555 3.575 6.187 7.168 6.176 1.714 0 3.104 1.39 3.104 3.103 0 1.714-1.39 3.104-3.104 3.104-1.714 0-3.103-1.39-3.103-3.104 0-1.142-.926-2.069-2.069-2.069-1.143 0-2.069.927-2.069 2.07.012 3.19 2.114 5.996 5.173 6.903v2.407c0 1.142.926 2.069 2.068 2.069 1.143 0 2.07-.927 2.07-2.07v-2.406c3.445-1.018 5.618-4.414 5.098-7.97-.52-3.555-3.574-6.187-7.168-6.175-1.714 0-3.103-1.39-3.103-3.104 0-1.714 1.39-3.103 3.103-3.103z" transform="translate(6.207 6.207)"/>
                    <g>
                        <path fill="#72727E" d="M39.31 0H2.07C.926 0 0 .926 0 2.069c0 1.143.926 2.069 2.069 2.069H39.31c1.143 0 2.07-.926 2.07-2.069C41.38.926 40.452 0 39.31 0zM39.31 8.276H2.07C.926 8.276 0 9.202 0 10.345c0 1.142.926 2.069 2.069 2.069H39.31c1.143 0 2.07-.927 2.07-2.07 0-1.142-.927-2.068-2.07-2.068zM20.69 16.552H2.069C.926 16.552 0 17.478 0 18.62c0 1.142.926 2.069 2.069 2.069h18.62c1.143 0 2.07-.927 2.07-2.07 0-1.142-.927-2.068-2.07-2.068zM14.483 24.828H2.069C.926 24.828 0 25.754 0 26.897c0 1.142.926 2.069 2.069 2.069h12.414c1.142 0 2.069-.927 2.069-2.07 0-1.142-.927-2.068-2.07-2.068zM14.483 33.103H2.069C.926 33.103 0 34.03 0 35.173c0 1.142.926 2.068 2.069 2.068h12.414c1.142 0 2.069-.926 2.069-2.069 0-1.142-.927-2.069-2.07-2.069z" transform="translate(6.207 6.207) translate(0 33.103)"/>
                        <path fill="#84D2F4" d="M14.483 41.38H2.069C.926 41.38 0 42.305 0 43.447c0 1.143.926 2.07 2.069 2.07h12.414c1.142 0 2.069-.927 2.069-2.07 0-1.142-.927-2.069-2.07-2.069z" transform="translate(6.207 6.207) translate(0 33.103)"/>
                    </g>
                </g>
                <path fill="#515163" d="M24.848 18.62H20.69c-1.143 0-2.07-.926-2.07-2.068 0-1.143.927-2.07 2.07-2.07h1.738c.63 1.476 1.444 2.866 2.42 4.139zM41.38 26.897H20.69c-1.143 0-2.07-.927-2.07-2.07 0-1.142.927-2.068 2.07-2.068h8.296c3.569 2.695 7.921 4.148 12.393 4.138z"/>
                <path fill="#E59730" d="M43.78 84.828c-.893 1.837-2.514 3.218-4.47 3.806v2.4c0 1.143-.926 2.07-2.069 2.07-1.142 0-2.069-.927-2.069-2.07v-2.4c-2.007-.605-3.658-2.045-4.53-3.951.816.1 1.639.149 2.461.145H43.78z"/>
                <g fill="#515163">
                    <path d="M6.207 0v4.138H2.069C.926 4.138 0 3.212 0 2.069 0 .926.926 0 2.069 0h4.138zM6.207 8.276v4.138H2.069C.926 12.414 0 11.487 0 10.344c0-1.142.926-2.068 2.069-2.068h4.138zM6.207 16.552v4.138H2.069C.926 20.69 0 19.763 0 18.62c0-1.142.926-2.068 2.069-2.068h4.138zM6.62 28.966H2.07C.926 28.966 0 28.039 0 26.896c0-1.142.926-2.068 2.069-2.068h4.138c0 1.39.138 2.776.414 4.138zM10.366 37.241H2.069C.926 37.241 0 36.315 0 35.172c0-1.142.926-2.069 2.069-2.069h5.876c.63 1.475 1.444 2.866 2.42 4.138zM16.552 43.448c0 1.143-.927 2.07-2.07 2.07H2.07C.926 45.517 0 44.59 0 43.447c0-1.142.926-2.069 2.069-2.069h12.434c.599.463 1.228.885 1.883 1.262.109.256.165.53.166.807z" transform="translate(6.207 39.31)"/>
                </g>
            </g>
            <g transform="translate(95.172 14.483)">
                <circle cx="8.276" cy="8.276" r="8.276" fill="#F5EB72"/>
                <circle cx="8.276" cy="8.276" r="4.138" fill="#FCBC04"/>
                <path fill="#E59730" d="M12.414 8.276c-.004 1.626-.959 3.099-2.442 3.765.25-.53.377-1.11.373-1.696-.007-2.283-1.856-4.131-4.138-4.138-.586-.005-1.166.123-1.697.372.806-1.768 2.734-2.738 4.634-2.33 1.9.408 3.26 2.083 3.27 4.027z"/>
            </g>
        </g>
    </g>
</svg>
