<svg xmlns="http://www.w3.org/2000/svg" xmlns:xlink="http://www.w3.org/1999/xlink" width="121" height="120" viewBox="0 0 121 120">
    <defs>
        <path id="jo7mv2mpea" d="M0 0H120V120H0z"/>
    </defs>
    <g fill="none" fill-rule="evenodd" transform="translate(.22)">
        <mask id="kmqssu4t6b" fill="#fff">
            <use xlink:href="#jo7mv2mpea"/>
        </mask>
        <g fill-rule="nonzero" mask="url(#kmqssu4t6b)">
            <path fill="#FFF0E5" d="M48.873 8.414V112.662c0 4.053 3.285 7.338 7.338 7.338h18.68l6.741-56.201-6.741-61.755C62.534 3.587 48.873 5.87 48.873 8.414z"/>
            <path fill="#F6DDCB" d="M102.526 94.894V70.576l-12.234-4.733 12.234-4.733V47.598l-6.077-4.208 6.077-4.067V8.121C102.526 3.636 98.89 0 94.404 0c0 0-9.312.77-19.513 2.044V120h36.372l-8.737-25.106z"/>
            <path fill="#DFBA9E" d="M102.526 94.894H120v16.369c0 4.825-3.912 8.737-8.737 8.737s-8.737-3.912-8.737-8.737v-16.37z"/>
            <g>
                <path fill="#F6DDCB" d="M11.223 0C5.067 0 .077 4.99.077 11.145v10.417h26.064l4.296-10.781L26.141 0H11.223z" transform="translate(39.844)"/>
                <path fill="#DFBA9E" d="M26.14 0v21.562h21.364V7.367C47.504 3.298 50.802 0 54.87 0H26.14z" transform="translate(39.844)"/>
            </g>
            <path fill="#475AD4" d="M25.36 60.582c-1.83 0-3.687-.305-5.52-.92-4.463-1.499-8.248-4.676-10.658-8.947C4.856 43.047 0 0 0 0s34.658 26.215 38.992 33.896c2.41 4.27 3.173 9.154 2.147 13.749-1.055 4.73-3.863 8.592-7.905 10.873-2.43 1.37-5.119 2.064-7.875 2.064z"/>
            <path fill="#2F41B7" d="M28.573 33.535L35.597 33.535 35.597 80.603 28.573 80.603z" transform="rotate(-29.411 32.085 57.07)"/>
            <g>
                <path fill="#F2F6FC" d="M11.892 0.117L11.795 7.628 0.061 14.668 0.061 29.782 21.17 31.722 25.264 16.311 21.17 0.14z" transform="translate(25.078 77.344)"/>
                <path fill="#DCE1EB" d="M42.28 14.666L30.55 7.641 30.55 0.163 21.17 0.14 21.17 32.512 42.28 29.782z" transform="translate(25.078 77.344)"/>
            </g>
            <g>
                <path fill="#EB6464" d="M0.061 33.063L0.061 45.938 21.17 45.938 23.851 39.5 21.17 33.063z" transform="translate(25.078 74.063)"/>
                <path fill="#DCE1EB" d="M5.66 0.051L5.66 7.076 21.17 7.076 23.187 3.421 21.17 0.051z" transform="translate(25.078 74.063)"/>
            </g>
            <path fill="#C84545" d="M46.248 107.126L67.358 107.126 67.358 120 46.248 120z"/>
            <path fill="#CDD2E0" d="M46.248 74.114L61.758 74.114 61.758 81.138 46.248 81.138z"/>
        </g>
    </g>
</svg>
