<svg xmlns="http://www.w3.org/2000/svg" xmlns:xlink="http://www.w3.org/1999/xlink" width="25" height="24" viewBox="0 0 25 24">
    <defs>
        <path id="prefix__a" d="M7 13.75c-2.34 0-7 1.17-7 3.5V19h14v-1.75c0-2.33-4.66-3.5-7-3.5zM2.34 17c.84-.58 2.87-1.25 4.66-1.25s3.82.67 4.66 1.25H2.34zM7 12c1.93 0 3.5-1.57 3.5-3.5S8.93 5 7 5 3.5 6.57 3.5 8.5 5.07 12 7 12zm0-5c.83 0 1.5.67 1.5 1.5S7.83 10 7 10s-1.5-.67-1.5-1.5S6.17 7 7 7zm7.04 6.81c1.16.84 1.96 1.96 1.96 3.44V19h4v-1.75c0-2.02-3.5-3.17-5.96-3.44zM13 12c1.93 0 3.5-1.57 3.5-3.5S14.93 5 13 5c-.54 0-1.04.13-1.5.35.63.89 1 1.98 1 3.15s-.37 2.26-1 3.15c.46.22.96.35 1.5.35z"/>
    </defs>
    <g fill="none" fill-rule="evenodd" transform="translate(-5.505)">
        <mask id="prefix__b" fill="#fff">
            <use xlink:href="#prefix__a"/>
        </mask>
        <g fill="#515163" mask="url(#prefix__b)">
            <path d="M0 0H24V24H0z" transform="translate(-2)"/>
        </g>
    </g>
</svg>
