<svg xmlns="http://www.w3.org/2000/svg" xmlns:xlink="http://www.w3.org/1999/xlink" width="25" height="24" viewBox="0 0 25 24">
    <defs>
        <path id="prefix__a" d="M12.5 3c-4.97 0-9 4.03-9 9h-3l3.89 3.89.07.14L8.5 12h-3c0-3.87 3.13-7 7-7s7 3.13 7 7-3.13 7-7 7c-1.93 0-3.68-.79-4.94-2.06l-1.42 1.42C7.77 19.99 10.01 21 12.5 21c4.97 0 9-4.03 9-9s-4.03-9-9-9zm-1 5v5l4.25 2.52.77-1.28L13 12.15V8h-1.5z"/>
    </defs>
    <g fill="none" fill-rule="evenodd" transform="translate(-6.505)">
        <mask id="prefix__b" fill="#fff">
            <use xlink:href="#prefix__a"/>
        </mask>
        <g fill="#515163" mask="url(#prefix__b)">
            <path d="M0 0H24V24H0z" transform="translate(-1)"/>
        </g>
    </g>
</svg>
