<svg xmlns="http://www.w3.org/2000/svg" xmlns:xlink="http://www.w3.org/1999/xlink" width="25" height="24" viewBox="0 0 25 24">
    <defs>
        <path id="prefix__a" d="M15 10l-1.41-1.42L7 15.17l-2.59-2.58L3 14l4 4 8-8zm1-6h-4.18C11.4 2.84 10.3 2 9 2c-1.3 0-2.4.84-2.82 2H2c-.14 0-.27.01-.4.04-.39.08-.74.28-1.01.55-.18.18-.33.4-.43.64-.1.23-.16.49-.16.77v14c0 .27.06.54.16.78s.25.45.43.64c.27.27.62.47 1.01.55.13.02.26.03.4.03h14c1.1 0 2-.9 2-2V6c0-1.1-.9-2-2-2zm-7-.25c.41 0 .75.34.75.75s-.34.75-.75.75-.75-.34-.75-.75.34-.75.75-.75zM16 20H2V6h14v14z"/>
    </defs>
    <g fill="none" fill-rule="evenodd" transform="translate(-4.505)">
        <mask id="prefix__b" fill="#fff">
            <use xlink:href="#prefix__a"/>
        </mask>
        <g fill="#515163" mask="url(#prefix__b)">
            <path d="M0 0H24V24H0z" transform="translate(-3)"/>
        </g>
    </g>
</svg>
