<?xml version="1.0" encoding="UTF-8"?>
<svg width="160px" height="139px" viewBox="0 0 160 139" version="1.1" xmlns="http://www.w3.org/2000/svg" xmlns:xlink="http://www.w3.org/1999/xlink">
    <title>Symphony Logo Illustration - Purple</title>
    <g id="Symphony-Logo-Illustration---Purple" stroke="none" stroke-width="1" fill="none" fill-rule="evenodd">
        <g id="Combined-Shape-Copy" fill="#475AD4">
            <path d="M153.640845,98 C157.152909,98 160,100.817857 160,104.29386 L160,107.171053 C160,110.647055 157.152909,113.464912 153.640845,113.464912 L82.8238423,113.464912 L50.5427402,135.280659 C47.0182265,137.666665 43.5307039,138.949142 40.5601609,138.998518 L40.3825526,139 C34.5882124,139 31,134.405323 31,126.7084 L31,126.7084 L31,113.464912 L82.8238423,113.464912 L105.708079,98 L153.640845,98 Z M40.5877707,0 C43.5872083,0 47.1958008,1.28940184 50.7772695,3.7256869 L50.7772695,3.7256869 L84.0663946,26.3546326 L61.4965986,26.3546326 C58.0298761,26.3546326 55.2120834,29.1193274 55.1484902,32.5538306 L55.1473923,32.672524 L55.1473923,35.5607029 C55.1473923,39.0499779 57.9900288,41.8785942 61.4965986,41.8785942 L61.4965986,41.8785942 L106.90322,41.8785942 L84.0663946,26.3546326 L153.650794,26.3546326 C157.157363,26.3546326 160,29.1832489 160,32.672524 L160,35.5607029 C160,39.0499779 157.157363,41.8785942 153.650794,41.8785942 L106.90322,41.8785942 L128.328666,56.4430354 C133.263777,59.7967757 135.989402,64.2962173 136.053273,69.1330166 L136.054422,69.3101219 C136.054422,74.2174801 133.291187,78.7870575 128.301542,82.1828191 L128.301542,82.1828191 L105.793016,97.4760383 L31.2018141,97.4760383 L31.2018141,113 L6.34920635,113 C2.84263655,113 0,110.171384 0,106.682109 L0,103.79393 C0,100.304655 2.84263655,97.4760383 6.34920635,97.4760383 L31.2018141,97.4760383 L31.2018141,77.2587859 L98.5034014,77.2587859 C101.970124,77.2587859 104.787917,74.4940911 104.85151,71.0595879 L104.852608,70.9408946 L104.852608,68.0527157 C104.852608,64.5634406 102.009971,61.7348243 98.5034014,61.7348243 L98.5034014,61.7348243 L31.2018141,61.7348243 L31.2018141,77.2587859 L6.34920635,77.2587859 C2.84263655,77.2587859 0,74.4301696 0,70.9408946 L0,68.0527157 C0,64.5634406 2.84263655,61.7348243 6.34920635,61.7348243 L31.2018141,61.7348243 L31.2018141,12.3564879 C31.2018141,4.69855155 34.7175499,0.0927354537 40.4144704,0.00138488179 L40.5877707,0 Z"></path>
        </g>
    </g>
</svg>