<svg xmlns="http://www.w3.org/2000/svg" width="143" height="24" viewBox="0 0 143 24">
    <defs>
        <filter id="prefix__a" width="101.8%" height="128.1%" x="-.9%" y="-14%" filterUnits="objectBoundingBox">
            <feOffset in="SourceAlpha" result="shadowOffsetOuter1"/>
            <feGaussianBlur in="shadowOffsetOuter1" result="shadowBlurOuter1" stdDeviation="2"/>
            <feColorMatrix in="shadowBlurOuter1" result="shadowMatrixOuter1" values="0 0 0 0 0 0 0 0 0 0 0 0 0 0 0 0 0 0 0.2 0"/>
            <feMerge>
                <feMergeNode in="shadowMatrixOuter1"/>
                <feMergeNode in="SourceGraphic"/>
            </feMerge>
        </filter>
    </defs>
    <g fill="#475AD4" filter="url(#prefix__a)" transform="translate(-25 -16)">
        <g>
            <path d="M44.205 19.282c.722 0 1.413-.08 2.072-.239.66-.16 1.242-.412 1.75-.758.506-.346.908-.8 1.207-1.36.298-.562.448-1.237.448-2.026 0-.679-.111-1.25-.334-1.714-.222-.464-.538-.862-.947-1.195-.41-.332-.91-.61-1.5-.83-.59-.222-1.245-.43-1.967-.624-.555-.138-1.045-.27-1.468-.395-.424-.124-.774-.263-1.052-.415-.277-.152-.49-.329-.635-.53-.146-.2-.219-.453-.219-.758 0-.526.195-.935.583-1.226.39-.29.98-.436 1.77-.436.445 0 .882.055 1.312.166.43.111.83.246 1.198.405.368.16.68.322.937.488.257.167.434.298.53.395l1.271-2.327c-.652-.443-1.416-.827-2.29-1.153-.875-.325-1.833-.488-2.874-.488-.75 0-1.45.1-2.103.302-.653.2-1.226.495-1.718.882-.493.388-.878.873-1.156 1.455-.278.581-.417 1.246-.417 1.994 0 .568.087 1.056.26 1.465.174.408.435.768.782 1.08.347.311.78.581 1.301.81.52.228 1.135.44 1.843.634.583.166 1.11.318 1.583.457.472.138.874.29 1.207.457.334.166.59.36.77.581.181.222.272.492.272.81 0 1.012-.792 1.517-2.374 1.517-.57 0-1.125-.07-1.666-.208-.542-.138-1.034-.308-1.479-.509-.444-.2-.83-.401-1.155-.602-.327-.201-.552-.364-.677-.488L38 17.37c.86.61 1.832 1.08 2.915 1.412 1.083.333 2.18.499 3.29.499zm8.65 4.649c.94 0 1.728-.243 2.363-.729.636-.485 1.085-1.11 1.347-1.873l4.56-13.073h-2.611l-2.612 8.493-2.943-8.493h-2.86l4.29 10.908c-.138.458-.27.84-.394 1.145-.124.305-.248.544-.373.718-.124.173-.262.295-.414.364-.152.07-.318.104-.498.104-.152 0-.338-.017-.56-.052-.22-.034-.448-.086-.683-.156v2.415c.248.083.487.142.715.177.228.035.452.052.673.052zm12.676-4.768v-6.33c.208-.676.56-1.221 1.054-1.635.493-.414 1.012-.62 1.554-.62.529 0 .943.2 1.242.6.299.4.449 1.034.449 1.903v6.082h2.796v-6.31c.209-.676.556-1.224 1.043-1.644.487-.421 1.009-.631 1.565-.631.53 0 .943.2 1.242.6.3.4.449 1.034.449 1.903v6.082h2.796v-6.765c0-.524-.045-1.041-.136-1.552-.09-.51-.254-.965-.49-1.365-.237-.4-.57-.724-1.002-.972-.431-.248-.98-.373-1.648-.373-.877 0-1.656.197-2.337.59-.682.393-1.246.962-1.69 1.707-.14-.648-.46-1.193-.96-1.635-.502-.44-1.211-.662-2.13-.662-.904 0-1.707.19-2.41.57-.702.379-1.255.92-1.659 1.623V8.323h-2.525v10.84h2.797zm19.22 4.53v-6.36c.358.653.853 1.17 1.486 1.553.633.382 1.376.573 2.229.573.687 0 1.32-.146 1.898-.437.578-.292 1.076-.696 1.496-1.21.42-.514.746-1.119.98-1.814.234-.695.351-1.439.351-2.231 0-.765-.127-1.491-.382-2.18-.254-.688-.605-1.285-1.052-1.793-.447-.507-.98-.91-1.6-1.21-.618-.298-1.293-.448-2.022-.448-.825 0-1.554.185-2.187.553-.633.368-1.149.872-1.548 1.512V8.324h-2.414v15.369h2.765zm2.936-6.557c-.603 0-1.164-.206-1.683-.62-.52-.412-.905-.934-1.157-1.564V12.37c.098-.266.242-.511.431-.735.19-.224.403-.42.642-.588.238-.168.497-.298.778-.389.28-.091.554-.136.82-.136.435 0 .838.084 1.21.252.372.168.694.399.968.693.273.294.487.64.641 1.04.154.398.232.829.232 1.29 0 .435-.07.855-.21 1.261-.141.406-.337.763-.59 1.071-.252.308-.557.553-.915.735-.357.182-.747.273-1.167.273zm10.378 1.967v-6.346c.097-.332.25-.636.458-.912.208-.277.437-.515.686-.716.25-.2.514-.356.791-.466.277-.11.541-.166.79-.166.583 0 1.034.204 1.353.612.319.407.479 1.04.479 1.897v6.097h2.787v-6.781c0-.54-.048-1.065-.145-1.576-.097-.512-.27-.968-.52-1.369s-.597-.722-1.04-.964c-.444-.242-1.02-.363-1.727-.363-.833 0-1.592.19-2.279.57-.686.38-1.23.923-1.633 1.628V3.964h-2.788v15.14h2.788zm14.745.298c.88 0 1.671-.151 2.373-.454.7-.302 1.292-.712 1.774-1.228.48-.515.852-1.11 1.113-1.785.262-.674.392-1.382.392-2.125 0-.757-.13-1.472-.392-2.146-.26-.674-.636-1.27-1.124-1.785-.488-.516-1.08-.925-1.774-1.228-.694-.303-1.481-.454-2.362-.454-.88 0-1.67.151-2.372.454-.701.303-1.296.712-1.784 1.228s-.863 1.11-1.124 1.785c-.261.674-.392 1.39-.392 2.146 0 .743.13 1.451.392 2.125.261.675.636 1.27 1.124 1.785.488.516 1.083.926 1.784 1.228.702.303 1.492.454 2.372.454zm.05-2.265c-.404 0-.78-.08-1.128-.241-.348-.161-.65-.389-.908-.683-.258-.294-.46-.64-.606-1.04-.146-.398-.22-.843-.22-1.333 0-.476.074-.917.22-1.323.146-.406.348-.756.606-1.05.257-.294.56-.525.908-.693.348-.168.724-.252 1.128-.252.403 0 .78.08 1.127.241.348.161.651.389.909.683.257.294.46.644.605 1.05.147.406.22.847.22 1.323 0 .49-.073.938-.22 1.344-.146.406-.348.756-.605 1.05-.258.294-.56.522-.909.683-.348.16-.724.241-1.127.241zm10.357 2.027v-6.33c.097-.332.25-.635.458-.91.208-.277.44-.515.697-.714.256-.2.53-.356.822-.466.291-.11.575-.165.853-.165.54 0 .964.2 1.269.6.305.4.458 1.034.458 1.903v6.082h2.788v-6.765c0-.524-.046-1.041-.136-1.552-.09-.51-.253-.965-.489-1.365-.235-.4-.568-.724-.998-.972-.43-.248-.985-.373-1.665-.373-.957 0-1.817.194-2.58.58-.763.386-1.345.924-1.747 1.613V8.323h-2.518v10.84h2.788zm11.174 4.768c.94 0 1.727-.243 2.363-.729.635-.485 1.084-1.11 1.347-1.873l4.56-13.073h-2.612l-2.611 8.493-2.943-8.493h-2.86l4.29 10.908c-.138.458-.27.84-.394 1.145-.124.305-.249.544-.373.718-.125.173-.263.295-.415.364-.152.07-.317.104-.497.104-.152 0-.339-.017-.56-.052-.22-.034-.449-.086-.684-.156v2.415c.249.083.487.142.715.177.228.035.453.052.674.052zM25.334 16.242c.576 0 1.043.467 1.043 1.043v.477c0 .576-.467 1.043-1.043 1.043H13.72l-5.295 3.616c-.578.395-1.15.608-1.637.616h-.03c-.95 0-1.539-.762-1.539-2.037v-2.195h8.5l3.754-2.563h7.862zM6.76.15c.493 0 1.086.213 1.674.615L13.903 4.5h-3.708c-.57 0-1.032.456-1.043 1.023v.497c0 .576.467 1.043 1.043 1.043h7.46L13.903 4.5h11.431c.576 0 1.043.467 1.043 1.043v.477c0 .576-.467 1.043-1.043 1.043h-7.68l3.52 2.404c.811.554 1.259 1.297 1.27 2.095v.03c0 .81-.454 1.564-1.274 2.125l-3.698 2.524H5.218v2.563H1.136c-.576 0-1.043-.467-1.043-1.043v-.477c0-.576.467-1.043 1.043-1.043h4.082v-3.337h11.057c.57 0 1.032-.457 1.043-1.024v-.496c0-.576-.467-1.043-1.043-1.043H5.218v2.563H1.136c-.576 0-1.043-.467-1.043-1.043v-.477c0-.576.467-1.043 1.043-1.043h4.082V2.19c0-1.265.578-2.025 1.514-2.04h.028z" transform="translate(25 16)"/>
        </g>
    </g>
</svg>
