<svg xmlns="http://www.w3.org/2000/svg" xmlns:xlink="http://www.w3.org/1999/xlink" width="140" height="140" viewBox="0 0 140 140">
  <defs>
    <clipPath id="clip-path">
      <rect id="Rectangle_232" data-name="Rectangle 232" width="112" height="112" transform="translate(57.104 9.104)" fill="#fff"/>
    </clipPath>
    <clipPath id="clip-path-2">
      <rect id="Rectangle_233" data-name="Rectangle 233" width="42" height="42" transform="translate(97 49)" fill="#fff"/>
    </clipPath>
  </defs>
  <g id="Group_2575" data-name="Group 2575" transform="translate(-48)" opacity="0.5">
    <rect id="Rectangle_230" data-name="Rectangle 230" width="140" height="140" rx="20" transform="translate(48)" fill="#fff"/>
    <g id="Mask_Group_107" data-name="Mask Group 107" transform="translate(4.896 4.896)" clip-path="url(#clip-path)">
      <g id="graphic" transform="translate(62 14)">
        <path id="Path_379" data-name="Path 379" d="M99.213,96.218H5.989V2.994A2.994,2.994,0,0,0,0,2.994V99.213a2.993,2.993,0,0,0,2.994,2.994H99.213a2.994,2.994,0,0,0,0-5.989Z" fill="rgba(23,23,46,0.8)"/>
      </g>
    </g>
    <g id="Mask_Group_108" data-name="Mask Group 108" transform="translate(-38.361 64.231) rotate(-19)" clip-path="url(#clip-path-2)">
      <g id="sleep" transform="translate(97 49)" opacity="0.98">
        <path id="Path_380" data-name="Path 380" d="M28.908,42H13.092A13.107,13.107,0,0,1,0,28.908V13.092A13.107,13.107,0,0,1,13.092,0H28.908A13.107,13.107,0,0,1,42,13.092V28.908A13.107,13.107,0,0,1,28.908,42Z" fill="#e5e5e6"/>
        <path id="Path_381" data-name="Path 381" d="M28.908,0H21V42h7.908A13.107,13.107,0,0,0,42,28.908V13.092A13.107,13.107,0,0,0,28.908,0Z" fill="#cecece"/>
        <path id="Path_382" data-name="Path 382" d="M13.092,22.551a6.723,6.723,0,0,1-4.915-2.1,1.231,1.231,0,0,1,1.842-1.628,4.36,4.36,0,0,0,6.146,0,1.231,1.231,0,0,1,1.842,1.628A6.724,6.724,0,0,1,13.092,22.551Z" fill="#1e4650"/>
        <path id="Path_383" data-name="Path 383" d="M28.908,22.551a6.723,6.723,0,0,1-4.915-2.1,1.231,1.231,0,0,1,1.842-1.628,4.36,4.36,0,0,0,6.146,0,1.231,1.231,0,0,1,1.842,1.628A6.723,6.723,0,0,1,28.908,22.551Z" fill="#0a1e28"/>
        <circle id="Ellipse_78" data-name="Ellipse 78" cx="5.184" cy="5.184" r="5.184" transform="translate(15.816 25.041)" fill="#1e4650"/>
        <path id="Path_384" data-name="Path 384" d="M19.682,14.323H15.728a1.23,1.23,0,0,1-.87-2.1l1.853-1.853h-.983a1.23,1.23,0,1,1,0-2.461h3.954a1.23,1.23,0,0,1,.87,2.1L18.7,11.862h.983a1.23,1.23,0,0,1,0,2.461Z" fill="#b0b0b0"/>
        <path id="Path_385" data-name="Path 385" d="M28.618,12.346H24a1.23,1.23,0,0,1-.87-2.1l2.512-2.512H24a1.23,1.23,0,0,1,0-2.461h4.613a1.23,1.23,0,0,1,.87,2.1L26.976,9.885h1.642a1.23,1.23,0,1,1,0,2.461Z" fill="rgba(23,23,46,0.4)"/>
        <path id="Path_386" data-name="Path 386" d="M39.531,15.641h-6.59a1.23,1.23,0,0,1-.87-2.1L36.56,9.051H32.941a1.23,1.23,0,0,1,0-2.461h6.59a1.23,1.23,0,0,1,.87,2.1L35.911,13.18h3.619a1.23,1.23,0,0,1,0,2.461Z" fill="rgba(23,23,46,0.6)"/>
        <path id="Path_387" data-name="Path 387" d="M21,35.41V25.041A5.184,5.184,0,0,1,21,35.41Z" fill="#0a1e28"/>
      </g>
    </g>
  </g>
</svg>
