<svg xmlns="http://www.w3.org/2000/svg" xmlns:xlink="http://www.w3.org/1999/xlink" width="24" height="24" viewBox="0 0 24 24"><defs><style>.a{fill:none;}.b{clip-path:url(#a);}</style><clipPath id="a"><rect class="a" width="24" height="24" transform="translate(26 25)"/></clipPath></defs><g class="b" transform="translate(-26 -25)"><g transform="translate(26 25)"><path d="M4.75,10.25v3.5a1.75,1.75,0,0,0,0-3.5Z"/><path d="M11.75,10.25a.877.877,0,0,0-.875.875v1.75a.875.875,0,0,0,1.75,0v-1.75A.877.877,0,0,0,11.75,10.25Z"/><path d="M22,5.5H2a2,2,0,0,0-2,2v9a2,2,0,0,0,2,2H22a2,2,0,0,0,2-2v-9A2,2,0,0,0,22,5.5ZM4.75,15.5H3v-7H4.75a3.5,3.5,0,1,1,0,7Zm9.625-2.625a2.625,2.625,0,0,1-5.25,0v-1.75a2.625,2.625,0,1,1,5.25,0ZM20.5,10.25H17.875a.877.877,0,0,0-.875.875v1.75a.876.876,0,0,0,.875.875H20.5V15.5H17.875a2.628,2.628,0,0,1-2.625-2.625v-1.75A2.629,2.629,0,0,1,17.875,8.5H20.5Z"/></g></g></svg>