<svg xmlns="http://www.w3.org/2000/svg" xmlns:xlink="http://www.w3.org/1999/xlink" width="88" height="88" viewBox="0 0 88 88">
  <defs>
    <clipPath id="clip-path">
      <rect id="Rectangle_235" data-name="Rectangle 235" width="72" height="72" transform="translate(82 34)" fill="#e5e5e6"/>
    </clipPath>
  </defs>
  <g id="Group_2576" data-name="Group 2576" transform="translate(-74 -26)" opacity="0.5">
    <rect id="Rectangle_230" data-name="Rectangle 230" width="88" height="88" transform="translate(74 26)" fill="none"/>
    <g id="Mask_Group_109" data-name="Mask Group 109" clip-path="url(#clip-path)">
      <g id="sleep" transform="translate(82 34)" opacity="0.98">
        <path id="Path_388" data-name="Path 388" d="M49.556,72H22.444A22.469,22.469,0,0,1,0,49.556V22.444A22.469,22.469,0,0,1,22.444,0H49.556A22.469,22.469,0,0,1,72,22.444V49.556A22.469,22.469,0,0,1,49.556,72Z" fill="#e5e5e6"/>
        <path id="Path_389" data-name="Path 389" d="M49.556,0H36V72H49.556A22.469,22.469,0,0,0,72,49.556V22.444A22.469,22.469,0,0,0,49.556,0Z" fill="#cecece"/>
        <path id="Path_390" data-name="Path 390" d="M22.444,38.658a11.525,11.525,0,0,1-8.425-3.6,2.109,2.109,0,0,1,3.157-2.791,7.475,7.475,0,0,0,10.536,0,2.109,2.109,0,0,1,3.157,2.791A11.526,11.526,0,0,1,22.444,38.658Z" fill="#1e4650"/>
        <path id="Path_391" data-name="Path 391" d="M49.556,38.658a11.525,11.525,0,0,1-8.425-3.6,2.109,2.109,0,0,1,3.157-2.791,7.475,7.475,0,0,0,10.536,0,2.109,2.109,0,0,1,3.157,2.791A11.525,11.525,0,0,1,49.556,38.658Z" fill="#0a1e28"/>
        <circle id="Ellipse_79" data-name="Ellipse 79" cx="8.887" cy="8.887" r="8.887" transform="translate(27.113 42.928)" fill="#1e4650"/>
        <path id="Path_392" data-name="Path 392" d="M33.741,24.553H26.962a2.109,2.109,0,0,1-1.491-3.6l3.177-3.177H26.963a2.109,2.109,0,0,1,0-4.219h6.778a2.109,2.109,0,0,1,1.491,3.6l-3.177,3.177h1.686a2.109,2.109,0,0,1,0,4.219Z" fill="#b0b0b0"/>
        <path id="Path_393" data-name="Path 393" d="M49.059,21.164H41.151a2.109,2.109,0,0,1-1.491-3.6l4.307-4.307H41.151a2.109,2.109,0,1,1,0-4.219h7.908a2.109,2.109,0,0,1,1.491,3.6l-4.307,4.307h2.815a2.109,2.109,0,1,1,0,4.219Z" fill="rgba(23,23,46,0.4)"/>
        <path id="Path_394" data-name="Path 394" d="M67.767,26.813H56.47a2.109,2.109,0,0,1-1.491-3.6l7.7-7.7h-6.2a2.109,2.109,0,0,1,0-4.219h11.3a2.109,2.109,0,0,1,1.491,3.6l-7.7,7.7h6.2a2.109,2.109,0,0,1,0,4.219Z" fill="rgba(23,23,46,0.6)"/>
        <path id="Path_395" data-name="Path 395" d="M36,60.7V42.928A8.888,8.888,0,0,1,36,60.7Z" fill="#0a1e28"/>
      </g>
    </g>
  </g>
</svg>
