<svg id="Motif_Logo" data-name="Motif Logo" xmlns="http://www.w3.org/2000/svg" width="213.91" height="136.549" viewBox="0 0 213.91 136.549">
  <path id="Union_11" data-name="Union 11" d="M23999.406,24102.348l-34.932-60.932-34.939,60.932h-41.059a2,2,0,0,1-1.736-3l76-132.549a2,2,0,0,1,3.473,0l75.992,132.549a2,2,0,0,1-1.73,3Zm-47.719-12.648a12.564,12.564,0,1,1,12.563,12.648A12.606,12.606,0,0,1,23951.688,24089.7Zm-121.117,12.648a2,2,0,0,1-1.736-3l76-132.549a2,2,0,0,1,3.473,0l20.705,36.119-57.006,99.426Z" transform="translate(-23828.566 -23965.799)" fill="#4c5bb9"/>
</svg>
