<svg xmlns="http://www.w3.org/2000/svg" xmlns:xlink="http://www.w3.org/1999/xlink" width="24" height="24" viewBox="0 0 24 24"><defs><style>.a{fill:none;}.b{clip-path:url(#a);}</style><clipPath id="a"><rect class="a" width="24" height="24" transform="translate(26 25)"/></clipPath></defs><g class="b" transform="translate(-26 -25)"><g transform="translate(26 25)"><path d="M11.75,10.25v3.5a1.75,1.75,0,0,0,0-3.5Z"/><path d="M5.625,10.25H4.75V12h.875a.875.875,0,1,0,0-1.75Z"/><path d="M22,5.5H2a2,2,0,0,0-2,2v9a2,2,0,0,0,2,2H22a2,2,0,0,0,2-2v-9A2,2,0,0,0,22,5.5ZM5.625,13.75H4.75V15.5H3v-7H5.625a2.625,2.625,0,0,1,0,5.25ZM11.75,15.5H10v-7h1.75a3.5,3.5,0,1,1,0,7Zm10.5-5.25h-3.5v.875h2.625v1.75H18.75V15.5H17V10.25A1.752,1.752,0,0,1,18.75,8.5h3.5Z"/></g></g></svg>