<svg xmlns="http://www.w3.org/2000/svg" xmlns:xlink="http://www.w3.org/1999/xlink" width="24" height="24" viewBox="0 0 24 24"><defs><style>.a{fill:none;}.b{clip-path:url(#a);}</style><clipPath id="a"><rect class="a" width="24" height="24" transform="translate(26 25)"/></clipPath></defs><g class="b" transform="translate(-26 -25)"><g transform="translate(26 25)"><path d="M22,5.5H2a2,2,0,0,0-2,2v9a2,2,0,0,0,2,2H22a2,2,0,0,0,2-2v-9A2,2,0,0,0,22,5.5ZM6.312,15.5H3.25V13.75H6.312a.438.438,0,0,0,0-.876H5.438a2.187,2.187,0,1,1,0-4.374H8.5v1.75H5.438a.438.438,0,1,0,0,.876h.875a2.187,2.187,0,1,1,0,4.374Zm6.581,0h-1.8l-1.718-7h1.75l.862,3.414L12.825,8.5h1.8l-1.75,6.931Zm7.857-5.25h-3.5v3.5H19v-.875h-.875v-1.75H20.75V13.75A1.752,1.752,0,0,1,19,15.5H17.25a1.752,1.752,0,0,1-1.75-1.75v-3.5A1.752,1.752,0,0,1,17.25,8.5h3.5Z"/></g></g></svg>