<svg xmlns="http://www.w3.org/2000/svg" xmlns:xlink="http://www.w3.org/1999/xlink" width="24" height="24" viewBox="0 0 24 24"><defs><style>.a{fill:none;}.b{clip-path:url(#a);}</style><clipPath id="a"><rect class="a" width="24" height="24" transform="translate(26 25)"/></clipPath></defs><g class="b" transform="translate(-26 -25)"><g transform="translate(26 25)"><path d="M22,5.5H2a2,2,0,0,0-2,2v9a2,2,0,0,0,2,2H22a2,2,0,0,0,2-2v-9A2,2,0,0,0,22,5.5ZM7.625,10.25H5.875V15.5H4.125V10.25H2.375V8.5h5.25v1.75ZM10.25,15.5H8.5v-7h1.75v7Zm11.375-5.25h-3.5v.875H20.75v1.75H18.125V15.5h-1.75V10.25h-3.5v.875H15.5v1.75H12.875V15.5h-1.75V10.25a1.752,1.752,0,0,1,1.75-1.75h3.5v1.75a1.752,1.752,0,0,1,1.75-1.75h3.5Z"/></g></g></svg>