<svg xmlns="http://www.w3.org/2000/svg" xmlns:xlink="http://www.w3.org/1999/xlink" width="24" height="24" viewBox="0 0 24 24"><defs><style>.a{fill:none;}.b{clip-path:url(#a);}</style><clipPath id="a"><rect class="a" width="24" height="24" transform="translate(26 25)"/></clipPath></defs><g class="b" transform="translate(-26 -25)"><g transform="translate(26 25)"><path d="M22,5.5H2a2,2,0,0,0-2,2v9a2,2,0,0,0,2,2H22a2,2,0,0,0,2-2v-9A2,2,0,0,0,22,5.5ZM8.25,15.5H6.281l-.656-1.4-.656,1.4H3L4.641,12,3,8.5H4.969l.656,1.4.656-1.4H8.25L6.609,12Zm5.75,0H9.625v-7h1.75v5.25H14Zm4.812,0H15.75V13.75h3.062a.438.438,0,0,0,0-.876h-.875a2.187,2.187,0,1,1,0-4.374H21v1.75H17.938a.438.438,0,0,0,0,.876h.875a2.187,2.187,0,1,1,0,4.374Z"/></g></g></svg>