<svg version="1" xmlns="http://www.w3.org/2000/svg" width="1600" height="1600" viewBox="0 0 1200.000000 1200.000000"><path d="M100 284.8c0 .4 4 6 8.8 12.4 4.8 6.4 12.5 16.9 17.2 23.3 4.7 6.4 9.1 12.4 9.8 13.3 5.9 7.9 35 47.5 58.4 79.3 5.1 7 10.3 13.9 11.5 15.5 1.8 2.4 18.6 25.2 25.3 34.4 1 1.4 4.5 6.1 7.7 10.5 3.3 4.4 8.9 12 12.5 17 16.3 22.1 22.9 31.1 24.3 32.8.8.9 1.5 2.2 1.5 2.7 0 .6.3 1 .8 1 .4 0 1.8 1.7 3.2 3.8 1.4 2 2.7 3.9 3 4.2.3.3 2.3 3 4.5 6s12.1 16.5 22.1 30c9.9 13.5 18.7 25.5 19.4 26.7 1.2 1.9.9 2.6-2.6 7.4-2.1 3-4.2 5.8-4.7 6.4-.4.5-32.8 44.4-71.8 97.5-68 92.4-77.4 105.1-99.1 134.5-8.9 12-23.8 32.2-27.2 37-.8 1.1-6.7 9-13 17.5-6.4 8.5-11.6 15.8-11.6 16.2 0 .5 60.2.8 133.8.8h133.8l11.9-16.3c6.6-8.9 12.8-17.4 14-18.8 1.1-1.5 2.8-3.7 3.7-5 1.9-2.7 13-17.8 25.3-34.4 4.5-6.1 14.1-19.1 21.4-29 7.3-9.9 14.1-19.1 15.1-20.5 1-1.4 8.3-11.3 16.2-22 16.7-22.8 23.9-32.6 36.3-49.3 5-6.7 14-19 20-27.2 6-8.3 11.3-15.5 11.7-16 1.2-1.4 16.5-22.1 37.3-50.5 9.8-13.5 18.4-24.8 18.9-25.2.6-.4 2.1 1 3.5 3 1.3 2 3.4 4.9 4.5 6.3 1.2 1.5 2.9 3.7 3.8 5 4 5.7 9.8 13.5 10.8 14.6 1.2 1.4 7 9.7 8.5 12.1.6.9 1.5 2.1 2.1 2.7.6.5 4.2 5.3 8 10.5 3.7 5.2 7.1 9.7 7.4 10 .3.3 2.1 2.7 4 5.5 1.9 2.7 4 5.7 4.7 6.5.7.8 8.7 11.6 17.7 24 9.1 12.4 17.3 23.5 18.1 24.6.9 1.2 12.1 16.5 25 34 12.9 17.6 23.8 32.4 24.4 33 .5.6 5.3 7.2 10.7 14.5 5.4 7.4 14.9 20.4 21.2 28.9 6.3 8.5 14.2 19.2 17.6 23.8 7.9 10.7 11.4 15.5 12.4 16.7.4.5 1.9 2.6 3.2 4.5 1.4 1.9 3 4.2 3.7 5 3.3 4.1 19.6 26.7 20 27.7.4 1 28.2 1.3 134.2 1.3 73.6 0 134.1-.3 134.4-.6.6-.6-.5-2.2-6.6-9.9-.4-.6-4.2-5.7-8.4-11.5-9.6-13.1-31-42.2-32-43.5-.5-.6-5.1-6.9-10.3-14-5.2-7.2-11.7-16-14.5-19.7-2.7-3.6-8.8-11.9-13.5-18.3-4.7-6.4-9.1-12.4-9.8-13.3-1.9-2.6-7.6-10.2-19.7-26.7-6-8.3-13.8-18.7-17.2-23.3-3.5-4.6-6.3-8.5-6.3-8.8 0-.2-.7-1.2-1.5-2.1-1.5-1.8-13.8-18.4-28.7-38.8-4.5-6.1-10.2-13.8-12.7-17.2-2.5-3.4-5.5-7.4-6.6-8.9-1.1-1.5-2.4-3.2-3-3.9-.5-.6-1.4-1.8-2-2.7-1-1.7-17.4-24-31.3-42.7l-7-9.3 2.9-4.3c1.6-2.3 3.5-4.8 4.4-5.5.8-.7 1.5-1.7 1.5-2.2 0-.5.6-1.5 1.3-2.3.6-.7 2-2.3 2.9-3.6.9-1.3 5-6.9 9.1-12.4 4-5.5 14.9-20.4 24.2-33 9.3-12.7 17.8-24.2 18.9-25.6 1.2-1.4 2.8-3.6 3.6-4.9.8-1.2 3.8-5.2 6.5-8.8 2.8-3.7 11.3-15.3 18.9-25.7 7.7-10.5 14.2-19.2 14.5-19.5.3-.3 1.1-1.2 1.6-2.1.6-1 4.9-7 9.7-13.5 4.8-6.6 21.4-29 36.8-49.9 15.4-20.9 35.1-47.6 43.7-59.4 8.7-11.7 19.1-25.7 23.1-31.1 3.9-5.4 7.2-10.3 7.2-10.9 0-.7-39.4-1.1-133.7-1H831.6l-1.5 2.4c-1.5 2.2-14.2 19.5-35.3 48.2-4.6 6.1-17.2 23.2-28 38-10.9 14.7-30.9 41.9-44.5 60.4-13.7 18.4-26.8 36.3-29.3 39.8s-5 6.8-5.5 7.4c-.6.7-6.6 8.8-13.5 18.2-6.8 9.3-12.8 17.4-13.3 18-.4.5-5.7 7.7-11.7 16-6 8.2-11.3 15.5-11.8 16.1-1.3 1.4-16.3 22-18.2 24.7-1.2 1.9-4.3 6.1-8.3 11.2-.4.5-3 4-5.8 7.8l-5 6.7-2.3-2.7c-1.2-1.6-5.1-6.9-8.7-11.8-3.5-5-6.8-9.5-7.4-10.2-2.5-3-3.4-4.2-8-10.8-2.8-3.9-5.5-7.7-6.2-8.5-.7-.8-6.7-8.9-13.3-18-6.7-9.1-12.6-17.2-13.3-18-.7-.8-2.3-3.1-3.7-5-1.3-1.9-2.8-4-3.3-4.5-.4-.6-7.7-10.5-16.2-22-8.5-11.6-19.1-26-23.6-32-14.7-19.9-21.3-28.9-28.7-39-4-5.5-8.2-11.1-9.2-12.5-6.7-8.9-27.6-37.3-30.3-41-3.7-5.4-23.2-31.8-25.2-34.2-.7-.9-2.2-2.9-3.2-4.5-.9-1.5-2-3-2.3-3.3-.3-.3-3-3.9-6-8-9.2-12.4-18.8-25.4-19.9-26.6-.5-.7-.7-1.4-.4-1.8.3-.3-60-.5-134.1-.5-74 0-134.6.3-134.6.7z"/></svg>